<?xml version="1.0" encoding="UTF-8" standalone="no"?>
<!DOCTYPE svg PUBLIC "-//W3C//DTD SVG 1.1//EN" "http://www.w3.org/Graphics/SVG/1.1/DTD/svg11.dtd">
<svg width="100%" height="100%" viewBox="0 0 520 520" version="1.1" xmlns="http://www.w3.org/2000/svg" xmlns:xlink="http://www.w3.org/1999/xlink" xml:space="preserve" xmlns:serif="http://www.serif.com/" style="fill-rule:evenodd;clip-rule:evenodd;stroke-linejoin:round;stroke-miterlimit:2;">
    <g transform="matrix(1,0,0,1,0,-590)">
        <g id="isotipo" transform="matrix(1,0,0,0.962963,-1074,21.851852)">
            <rect x="1074" y="590" width="520" height="540" style="fill:none;"/>
            <g id="IsotipoColor" transform="matrix(0.707564,0,0,0.734778,989.797294,621.737666)">
                <g id="AzulTech" transform="matrix(5.780356,0,0,5.780356,-142.166425,-528.84651)">
                    <path d="M123.039,121.48C123.004,120.107 122.878,119.703 122.634,119.54C121.321,118.665 119.317,116.69 118.901,115.862C116.512,111.102 120.091,105.268 125.4,105.268C129.73,105.268 133.319,109.328 132.655,113.477C132.272,115.877 131.313,117.155 128.242,119.364C127.777,119.698 127.609,119.888 127.619,121.71C127.617,121.621 127.615,121.544 127.613,121.48C127.556,121.482 127.489,121.483 127.413,121.485L127.412,121.48L123.039,121.48ZM127.758,134.799C127.926,133.689 128.046,132.945 128.046,132.945L129.184,130.937C130.799,128.088 132.803,126.949 136.16,126.958C140.07,126.968 141.945,128.336 142.845,130.682C143.487,132.356 143.804,132.771 143.684,134.9C143.515,137.895 142.63,139.288 138.806,142.582C133.455,147.191 129.876,150.572 129.235,151.623C128.744,152.429 128.577,153.39 128.576,155.435L128.576,157.985C128.266,157.978 127.953,157.971 127.637,157.964L117.702,158.007L116.789,158.634C116.781,158.642 116.774,158.649 116.767,158.656L115.875,159.548L115.875,189.901C113.794,189.903 111.454,189.904 108.82,189.904C106.155,189.904 103.791,189.903 101.691,189.901L101.432,175.461C101.47,163.211 101.265,160.917 102.954,157.242C103.029,157.079 103.109,156.914 103.192,156.745C103.522,156.107 103.927,155.209 104.428,154.483C106.086,152.074 108.462,150.711 112.245,149.57C118.721,147.616 123.046,144.39 126.035,139.119C126.75,137.982 127.228,137.045 127.528,135.918C127.634,135.569 127.707,135.216 127.758,134.799ZM148.154,126.987C144.519,125.399 142.845,122.037 143.909,118.456C145.114,114.399 149.945,112.186 153.548,114.04C156.249,115.429 157.503,117.453 157.503,120.422C157.503,122.533 157.041,123.818 155.805,125.141C153.865,127.217 150.525,128.023 148.154,126.987Z" style="fill:rgb(74,144,226);"/>
                </g>
                <g id="VerdeCrecimiento" transform="matrix(5.780356,0,0,5.780356,-142.166425,-528.84651)">
                    <path d="M97.354,189.919L93.512,189.919C85.724,189.919 85.259,189.881 83.785,189.125C81.226,187.813 80.95,186.909 80.95,179.83C80.95,170.965 80.312,168.553 77.089,165.245C74.327,162.409 72.984,161.889 68.402,161.881C64.739,161.874 64.407,161.813 63.029,160.903C57.251,157.083 60.323,147.91 67.368,147.948C70.063,147.963 73.35,150.672 73.756,153.213C73.877,153.97 74.268,155.069 74.625,155.656C75.784,157.561 77.015,157.927 83.067,158.162C85.833,158.27 88.237,158.312 88.718,158.265C88.716,158.271 88.715,158.275 88.715,158.275L90.377,159.584C92.449,160.682 95.271,163.778 96.403,166.194L97.354,168.223L97.354,179.071L97.354,189.919ZM129.281,158.161C129.281,158 138.272,158.07 139.273,157.875C141.547,157.434 142.835,156.139 143.756,153.372C145.527,148.049 151.253,146.275 155.272,149.804C156.879,151.215 157.503,152.696 157.497,155.071C157.491,157.616 155.068,160.538 153.622,161.275C152.277,161.961 151.707,162.062 149.918,161.881C148.754,161.762 147.362,161.667 146.825,161.668C144.089,161.673 139.546,165.234 137.837,168.714C136.885,170.653 136.862,170.851 136.689,178.63C136.433,190.146 136.689,189.919 123.982,189.919L120.285,189.919L120.173,180.482C120.052,170.249 120.259,168.332 121.795,165.477C122.887,163.447 125.715,160.544 127.779,159.335C128.605,158.851 129.281,158.227 129.281,158.161ZM64.594,126.961C61.792,125.962 60.086,123.549 60.086,120.585C60.086,116.44 63.203,113.353 67.368,113.376C69.955,113.39 73.143,115.931 73.873,118.56C74.431,120.569 74.333,121.524 73.371,123.439C71.709,126.75 68.084,128.205 64.594,126.961Z" style="fill:rgb(82,164,103);"/>
                </g>
                <g id="AzulMedianoche" transform="matrix(5.780356,0,0,5.780356,-142.166425,-528.84651)">
                    <path d="M97.354,179.071L97.354,168.223L96.403,166.194C95.271,163.778 92.449,160.682 90.377,159.584L88.715,158.275C88.715,158.275 89.195,157.131 89.005,155.747C88.926,154.601 88.859,152.719 88.237,151.399C87.632,150.511 82.292,145.698 79.246,143.221C75.303,140.014 73.556,137.671 73.583,134.509C73.608,131.598 75.204,129.178 77.545,128.012C81.897,125.843 87.267,127.864 88.701,132.21C88.931,132.905 89.092,133.129 89.271,133.129C89.459,133.129 89.77,130.229 89.77,126.632C89.77,126.632 89.735,122.087 89.77,119.79C87.375,118.38 84.43,116.671 84.419,112.942C84.411,110.001 86.39,105.256 91.886,105.256C98.102,105.256 99.287,110.698 99.285,112.837C99.282,115.707 97.128,118.433 94.356,119.733C94.386,121.765 94.36,126.339 94.36,126.339C94.363,130.805 94.521,133.534 94.848,134.762C95.965,138.958 98.933,142.56 102.745,144.347C104.55,145.193 105.171,145.293 108.643,145.293C112.155,145.293 112.521,145.132 114.458,144.306C116.136,143.59 119.716,140.628 120.446,139.523C122.504,136.408 122.856,134.936 122.944,128.359C122.985,125.255 123.041,121.918 123.066,121.579C123.542,121.513 126.753,121.503 127.613,121.48C127.637,122.619 127.869,127.967 127.869,127.967C128.163,135.417 127.775,136.538 125.346,140.174C122.153,144.957 118.616,147.558 112.592,149.556C107.063,151.389 105.161,152.823 103.274,156.582C101.715,159.686 101.59,161.125 101.589,175.896L101.588,189.918L97.354,189.919L97.354,179.071ZM115.875,189.919L115.875,159.548L116.767,158.656C117.658,157.765 117.658,157.913 122.852,157.942C128.892,157.976 129.281,158 129.281,158.161C129.281,158.227 128.605,158.851 127.779,159.335C125.715,160.544 122.887,163.447 121.795,165.477C120.259,168.332 120.052,170.249 120.173,180.482L120.285,189.92L115.875,189.919ZM118.86,131.723C118.532,140.583 110.38,141.425 108.757,141.478C103.89,141.639 99.011,137.479 98.734,131.892C98.336,123.872 104.986,121.102 109.128,121.272C115.245,121.523 119.044,126.745 118.86,131.723Z" style="fill:rgb(29,43,54);fill-rule:nonzero;"/>
                </g>
            </g>
        </g>
    </g>
</svg>
