<?xml version="1.0" encoding="UTF-8" standalone="no"?>
<!DOCTYPE svg PUBLIC "-//W3C//DTD SVG 1.1//EN" "http://www.w3.org/Graphics/SVG/1.1/DTD/svg11.dtd">
<svg width="100%" height="100%" viewBox="0 0 520 540" version="1.1" xmlns="http://www.w3.org/2000/svg" xmlns:xlink="http://www.w3.org/1999/xlink" xml:space="preserve" xmlns:serif="http://www.serif.com/" style="fill-rule:evenodd;clip-rule:evenodd;stroke-linejoin:round;stroke-miterlimit:2;">
    <g transform="matrix(1,0,0,1,-1074,0)">
        <g id="vertical" transform="matrix(0.507812,0,0,1.08,528.609375,0)">
            <rect x="1074" y="0" width="1024" height="500" style="fill:none;"/>
            <g id="LogoBlanco" transform="matrix(1.969231,0,0,0.925926,1093.692308,-7.407407)">
                <g id="IsotipoBlanco" transform="matrix(0.707564,0,0,0.707564,-94.18421,-38.429138)">
                    <g id="AzulMedianoche" transform="matrix(1.653842,0,0,1.653842,91.563045,-89.208084)">
                        <path d="M257.041,396.373C251.516,396.376 245.521,396.377 239.012,396.377C230.327,396.377 222.556,396.375 215.596,396.369L214.718,347.413C214.849,305.044 214.054,297.103 219.9,284.387C220.154,283.835 220.422,283.278 220.705,282.707C221.833,280.52 223.212,277.452 224.919,274.973C230.536,266.818 238.618,262.261 251.424,258.397C274.474,251.443 289.854,239.939 300.496,221.181C303.072,217.088 304.786,213.7 305.87,209.629C306.256,208.352 306.528,207.05 306.716,205.516L306.718,205.5C307.191,202.383 307.554,200.1 307.674,199.344L311.518,192.562C316.849,183.155 323.477,179.402 334.564,179.43C347.35,179.463 353.562,183.795 356.506,191.467C358.655,197.068 359.742,198.452 359.339,205.576C358.77,215.653 355.686,220.27 342.818,231.354C323.926,247.626 311.325,259.602 309.062,263.313C307.238,266.304 306.539,269.851 306.535,277.433C306.535,277.433 307.206,282.81 306.532,284.784C305.244,288.556 307.149,287.833 304.526,289.784C297.639,294.907 286.976,304.543 283.056,311.828C277.612,321.947 276.779,328.73 277.209,364.995L277.582,396.477L271.377,396.477L257.048,396.476L257.041,396.373ZM303.219,157.229L290.183,157.229C290.075,155.017 289.866,153.639 289.578,152.753C289.219,151.653 288.71,151.084 288.141,150.705C283.748,147.776 277.003,141.206 275.613,138.437C267.763,122.796 279.517,103.622 296.962,103.622C311.176,103.622 322.988,116.925 320.81,130.543C319.53,138.55 316.249,142.75 306.003,150.119C305.37,150.574 304.872,150.986 304.467,151.541C303.786,152.475 303.337,153.907 303.219,157.229ZM377.102,176.606C365.167,171.392 359.626,160.378 363.117,148.623C367.06,135.344 382.847,128.043 394.643,134.111C403.509,138.671 407.636,145.311 407.636,155.059C407.636,161.965 406.155,166.179 402.112,170.508C395.769,177.3 384.857,179.994 377.102,176.606Z" style="fill:white;"/>
                    </g>
                    <g id="VerdeCrecimiento" transform="matrix(5.780356,0,0,5.780356,-142.166425,-528.84651)">
                        <path d="M88.715,158.661C88.696,158.661 88.677,158.66 88.659,158.657L88.713,158.654L88.715,158.661ZM88.58,158.661L90.138,159.887C90.156,159.902 90.176,159.914 90.196,159.925C92.211,160.994 94.952,164.008 96.053,166.358L96.968,168.309L96.968,179.071L96.968,189.532L93.512,189.533C85.867,189.533 85.408,189.523 83.961,188.781C82.552,188.059 81.89,187.476 81.592,185.718C81.378,184.455 81.337,182.631 81.337,179.83C81.337,170.796 80.65,168.347 77.366,164.975C74.515,162.048 73.132,161.503 68.403,161.494C64.888,161.487 64.564,161.454 63.243,160.58C57.777,156.967 60.703,148.298 67.366,148.335C68.634,148.342 70.036,148.994 71.175,149.932C72.307,150.865 73.184,152.085 73.375,153.274C73.503,154.075 73.918,155.237 74.295,155.857C75.048,157.095 75.823,157.74 77.742,158.107C78.937,158.335 80.604,158.453 83.052,158.548C85.594,158.647 87.833,158.69 88.58,158.661ZM129.63,158.328L129.655,158.26L129.667,158.161C129.667,158.216 129.657,158.272 129.63,158.328ZM129.565,158.42L129.618,158.349C129.605,158.372 129.589,158.395 129.569,158.417L129.565,158.42ZM129.498,158.51C129.518,158.508 129.541,158.506 129.562,158.504C131.034,158.396 138.442,158.431 139.347,158.255C141.76,157.786 143.145,156.431 144.123,153.494C145.8,148.455 151.212,146.754 155.017,150.095C156.534,151.426 157.118,152.828 157.111,155.07C157.105,156.928 155.98,158.845 155.45,159.402C155.235,159.628 154.276,160.503 153.445,160.932C152.182,161.584 151.641,161.667 149.957,161.496C148.778,161.376 147.368,161.28 146.824,161.281C145.671,161.283 144.208,161.869 142.759,162.825C140.64,164.223 138.543,166.4 137.49,168.543C136.522,170.515 136.478,170.714 136.303,178.622C136.226,182.044 136.2,184.419 135.855,186.068C135.643,187.079 135.315,187.8 134.748,188.304C134.172,188.816 133.36,189.101 132.223,189.275C130.394,189.555 127.767,189.532 123.982,189.532L120.667,189.533L120.559,180.478C120.44,170.375 120.619,168.479 122.136,165.66C123.201,163.679 125.961,160.848 127.974,159.668C128.675,159.258 129.272,158.751 129.484,158.529L129.498,158.51ZM64.724,126.597C62.081,125.654 60.472,123.38 60.472,120.585C60.472,116.661 63.424,113.741 67.366,113.763C68.583,113.769 69.936,114.381 71.076,115.29C72.222,116.203 73.156,117.42 73.501,118.664C74.027,120.558 73.933,121.459 73.026,123.266C71.454,126.398 68.025,127.773 64.724,126.597Z" style="fill:white;"/>
                    </g>
                    <g id="AzulMedianoche1" serif:id="AzulMedianoche" transform="matrix(1.653842,0,0,1.653842,91.563045,-89.208084)">
                        <path d="M200.206,360.044L200.206,322.13C200.206,321.944 200.165,321.76 200.086,321.592L196.762,314.499C192.722,305.877 182.664,294.851 175.247,290.867L170.239,286.924C170.724,285.393 171.523,282.13 171.02,278.393C170.734,274.267 170.452,267.523 168.217,262.787C168.189,262.727 168.156,262.669 168.119,262.614C165.987,259.485 147.186,242.491 136.448,233.76C123.078,222.889 117.032,215.026 117.123,204.305C117.205,194.639 122.494,186.594 130.268,182.72C144.78,175.488 162.709,182.164 167.492,196.655C168.046,198.335 168.534,199.315 168.965,199.842C169.208,200.139 169.454,200.338 169.692,200.473L170.174,200.67L170.687,200.738L171.003,200.7L171.269,200.604L171.728,200.249C171.898,200.052 172.172,199.496 172.362,198.57C172.983,195.538 173.696,186.941 173.696,176.765L173.696,176.755C173.696,176.755 173.575,160.889 173.696,152.869C173.703,152.413 173.465,151.989 173.072,151.758C165.046,147.03 155.033,141.411 154.997,128.911C154.968,119.126 161.539,103.321 179.827,103.321C200.501,103.321 204.425,121.434 204.419,128.548C204.409,138.118 197.165,147.168 187.92,151.502C187.469,151.713 187.183,152.17 187.191,152.668C187.295,159.764 187.205,175.733 187.205,175.733L187.205,175.741C187.215,191.522 187.798,201.166 188.953,205.506C192.954,220.532 203.591,233.429 217.243,239.828C223.717,242.862 225.94,243.252 238.394,243.252C250.97,243.252 252.279,242.66 259.214,239.702C265.239,237.133 278.084,226.485 280.704,222.519C288.024,211.437 289.331,206.214 289.644,182.818C289.768,173.522 289.928,163.629 290.025,160.28C292.899,160.142 299.982,160.103 303.464,160.049C303.639,165.681 304.315,181.244 304.325,181.483C305.335,207.052 304.054,210.91 295.719,223.392C284.724,239.857 272.537,248.804 251.798,255.681C232.016,262.241 225.248,267.425 218.496,280.872C213.002,291.813 212.474,296.88 212.471,348.945L212.467,396.688L206.336,396.689L200.206,396.69L200.206,360.044ZM272.835,194.511C271.73,224.388 244.225,227.207 238.751,227.387C222.363,227.927 205.961,213.895 205.027,195.084C203.687,168.066 226.083,158.724 240.037,159.297C260.649,160.144 273.456,177.736 272.835,194.511Z" style="fill:white;fill-rule:nonzero;"/>
                    </g>
                </g>
                <g id="TextoBlanco" transform="matrix(0.922714,0,0,0.922714,-125.381127,-0.689965)">
                    <g transform="matrix(102,0,0,102,233.057243,471.159817)">
                        <path d="M0.384,0.017C0.354,0.017 0.323,0.012 0.291,0.003C0.258,-0.006 0.226,-0.02 0.195,-0.039C0.163,-0.057 0.135,-0.081 0.109,-0.11C0.084,-0.139 0.064,-0.173 0.049,-0.212C0.034,-0.251 0.026,-0.296 0.026,-0.346C0.026,-0.394 0.034,-0.437 0.049,-0.475C0.064,-0.512 0.084,-0.545 0.109,-0.573C0.134,-0.601 0.162,-0.624 0.194,-0.642C0.225,-0.66 0.258,-0.674 0.291,-0.683C0.324,-0.692 0.356,-0.697 0.386,-0.697C0.42,-0.697 0.449,-0.693 0.475,-0.685C0.5,-0.677 0.521,-0.669 0.537,-0.66C0.553,-0.652 0.563,-0.646 0.567,-0.643C0.579,-0.635 0.591,-0.627 0.601,-0.618C0.612,-0.608 0.617,-0.596 0.618,-0.581C0.618,-0.573 0.617,-0.565 0.614,-0.557C0.61,-0.549 0.606,-0.541 0.6,-0.533C0.589,-0.518 0.579,-0.507 0.569,-0.5C0.559,-0.493 0.55,-0.489 0.54,-0.489C0.532,-0.489 0.524,-0.491 0.517,-0.495C0.51,-0.499 0.501,-0.505 0.491,-0.511C0.486,-0.514 0.48,-0.518 0.471,-0.523C0.462,-0.528 0.45,-0.533 0.436,-0.537C0.421,-0.541 0.402,-0.543 0.38,-0.543C0.357,-0.543 0.333,-0.539 0.309,-0.531C0.286,-0.523 0.264,-0.51 0.244,-0.494C0.224,-0.477 0.208,-0.456 0.196,-0.43C0.184,-0.405 0.178,-0.375 0.178,-0.341C0.178,-0.306 0.184,-0.276 0.197,-0.25C0.209,-0.225 0.225,-0.204 0.245,-0.187C0.265,-0.17 0.286,-0.158 0.31,-0.15C0.334,-0.141 0.357,-0.137 0.38,-0.137C0.4,-0.137 0.417,-0.139 0.431,-0.143C0.445,-0.147 0.458,-0.151 0.468,-0.157C0.479,-0.163 0.488,-0.168 0.495,-0.173C0.502,-0.177 0.51,-0.182 0.517,-0.186C0.525,-0.19 0.533,-0.192 0.541,-0.192C0.55,-0.192 0.56,-0.188 0.57,-0.181C0.579,-0.173 0.589,-0.162 0.599,-0.146C0.605,-0.137 0.61,-0.128 0.613,-0.12C0.616,-0.112 0.617,-0.104 0.617,-0.096C0.617,-0.082 0.611,-0.07 0.601,-0.061C0.59,-0.052 0.579,-0.044 0.567,-0.037C0.561,-0.034 0.551,-0.028 0.536,-0.019C0.521,-0.01 0.501,-0.002 0.475,0.005C0.45,0.013 0.419,0.017 0.384,0.017Z" style="fill:white;fill-rule:nonzero;"/>
                    </g>
                    <g transform="matrix(72.790661,0,0,72.790661,298.643243,471.159817)">
                        <path d="M0.367,0.019C0.319,0.019 0.274,0.01 0.231,-0.008C0.189,-0.027 0.152,-0.052 0.12,-0.085C0.088,-0.117 0.063,-0.155 0.045,-0.197C0.027,-0.24 0.018,-0.286 0.018,-0.335C0.018,-0.385 0.027,-0.432 0.044,-0.476C0.062,-0.52 0.086,-0.558 0.118,-0.591C0.149,-0.624 0.185,-0.65 0.226,-0.669C0.267,-0.687 0.312,-0.697 0.359,-0.697C0.407,-0.697 0.452,-0.688 0.494,-0.669C0.537,-0.651 0.573,-0.626 0.605,-0.593C0.637,-0.56 0.661,-0.522 0.679,-0.479C0.697,-0.435 0.707,-0.389 0.707,-0.338C0.707,-0.289 0.698,-0.243 0.68,-0.2C0.663,-0.157 0.638,-0.119 0.607,-0.086C0.575,-0.053 0.539,-0.027 0.499,-0.009C0.458,0.01 0.414,0.019 0.367,0.019ZM0.362,-0.133C0.388,-0.133 0.413,-0.138 0.437,-0.149C0.46,-0.16 0.481,-0.174 0.498,-0.193C0.516,-0.211 0.53,-0.233 0.539,-0.258C0.549,-0.283 0.554,-0.31 0.554,-0.339C0.554,-0.367 0.549,-0.394 0.539,-0.418C0.529,-0.443 0.515,-0.465 0.497,-0.484C0.48,-0.503 0.459,-0.518 0.436,-0.529C0.413,-0.539 0.389,-0.544 0.362,-0.544C0.336,-0.544 0.311,-0.539 0.288,-0.529C0.265,-0.518 0.245,-0.503 0.227,-0.484C0.209,-0.465 0.195,-0.444 0.185,-0.419C0.175,-0.394 0.17,-0.367 0.17,-0.338C0.17,-0.31 0.175,-0.284 0.186,-0.259C0.196,-0.234 0.21,-0.212 0.227,-0.193C0.245,-0.174 0.265,-0.16 0.288,-0.149C0.311,-0.139 0.336,-0.133 0.362,-0.133Z" style="fill:white;fill-rule:nonzero;"/>
                    </g>
                    <g transform="matrix(72.790661,0,0,72.790661,351.380077,471.159817)">
                        <path d="M0.115,0.009C0.091,0.009 0.074,0.006 0.064,-0.002C0.053,-0.009 0.047,-0.019 0.044,-0.03C0.042,-0.042 0.04,-0.054 0.04,-0.068L0.04,-0.617C0.04,-0.629 0.042,-0.641 0.044,-0.652C0.047,-0.663 0.054,-0.672 0.065,-0.679C0.076,-0.686 0.093,-0.689 0.118,-0.689C0.142,-0.689 0.159,-0.686 0.168,-0.681C0.177,-0.675 0.186,-0.667 0.193,-0.657L0.485,-0.256L0.485,-0.617C0.485,-0.629 0.487,-0.641 0.489,-0.652C0.492,-0.663 0.499,-0.672 0.51,-0.679C0.52,-0.686 0.538,-0.689 0.562,-0.689C0.587,-0.689 0.604,-0.686 0.614,-0.678C0.625,-0.671 0.631,-0.661 0.634,-0.65C0.636,-0.638 0.637,-0.626 0.637,-0.613L0.637,-0.067C0.637,-0.054 0.636,-0.042 0.633,-0.03C0.63,-0.019 0.624,-0.009 0.613,-0.002C0.602,0.006 0.584,0.009 0.559,0.009C0.541,0.009 0.526,0.008 0.516,0.004C0.506,0.001 0.498,-0.005 0.49,-0.015L0.192,-0.419L0.192,-0.067C0.192,-0.054 0.19,-0.042 0.188,-0.03C0.185,-0.019 0.178,-0.009 0.168,-0.002C0.157,0.006 0.139,0.009 0.115,0.009Z" style="fill:white;fill-rule:nonzero;"/>
                    </g>
                    <g transform="matrix(72.790661,0,0,72.790661,401.059703,471.159817)">
                        <path d="M0.126,0.009C0.102,0.009 0.084,0.006 0.074,-0.001C0.063,-0.009 0.057,-0.018 0.054,-0.03C0.052,-0.042 0.051,-0.054 0.051,-0.067L0.051,-0.614C0.051,-0.643 0.056,-0.663 0.068,-0.674C0.079,-0.685 0.1,-0.69 0.129,-0.69L0.507,-0.69C0.521,-0.69 0.533,-0.689 0.544,-0.686C0.556,-0.684 0.565,-0.677 0.572,-0.667C0.579,-0.656 0.583,-0.638 0.583,-0.613C0.583,-0.589 0.579,-0.571 0.572,-0.561C0.565,-0.55 0.555,-0.544 0.544,-0.541C0.532,-0.539 0.52,-0.538 0.506,-0.538L0.203,-0.538L0.203,-0.409L0.409,-0.409C0.423,-0.409 0.434,-0.408 0.444,-0.406C0.454,-0.404 0.463,-0.398 0.469,-0.389C0.475,-0.38 0.478,-0.364 0.478,-0.342C0.478,-0.321 0.475,-0.306 0.469,-0.297C0.463,-0.288 0.454,-0.282 0.444,-0.28C0.433,-0.278 0.421,-0.277 0.407,-0.277L0.203,-0.277L0.203,-0.143L0.507,-0.143C0.521,-0.143 0.533,-0.142 0.544,-0.139C0.556,-0.137 0.565,-0.13 0.572,-0.119C0.579,-0.109 0.583,-0.091 0.583,-0.066C0.583,-0.042 0.579,-0.024 0.572,-0.014C0.565,-0.003 0.555,0.003 0.544,0.006C0.532,0.008 0.52,0.009 0.506,0.009L0.126,0.009Z" style="fill:white;fill-rule:nonzero;"/>
                    </g>
                    <g transform="matrix(72.790661,0,0,72.790661,445.443808,471.159817)">
                        <path d="M0.384,0.017C0.354,0.017 0.323,0.012 0.291,0.003C0.258,-0.006 0.226,-0.02 0.195,-0.039C0.163,-0.057 0.135,-0.081 0.109,-0.11C0.084,-0.139 0.064,-0.173 0.049,-0.212C0.034,-0.251 0.026,-0.296 0.026,-0.346C0.026,-0.394 0.034,-0.437 0.049,-0.475C0.064,-0.512 0.084,-0.545 0.109,-0.573C0.134,-0.601 0.162,-0.624 0.194,-0.642C0.225,-0.66 0.258,-0.674 0.291,-0.683C0.324,-0.692 0.356,-0.697 0.386,-0.697C0.42,-0.697 0.449,-0.693 0.475,-0.685C0.5,-0.677 0.521,-0.669 0.537,-0.66C0.553,-0.652 0.563,-0.646 0.567,-0.643C0.579,-0.635 0.591,-0.627 0.601,-0.618C0.612,-0.608 0.617,-0.596 0.618,-0.581C0.618,-0.573 0.617,-0.565 0.614,-0.557C0.61,-0.549 0.606,-0.541 0.6,-0.533C0.589,-0.518 0.579,-0.507 0.569,-0.5C0.559,-0.493 0.55,-0.489 0.54,-0.489C0.532,-0.489 0.524,-0.491 0.517,-0.495C0.51,-0.499 0.501,-0.505 0.491,-0.511C0.486,-0.514 0.48,-0.518 0.471,-0.523C0.462,-0.528 0.45,-0.533 0.436,-0.537C0.421,-0.541 0.402,-0.543 0.38,-0.543C0.357,-0.543 0.333,-0.539 0.309,-0.531C0.286,-0.523 0.264,-0.51 0.244,-0.494C0.224,-0.477 0.208,-0.456 0.196,-0.43C0.184,-0.405 0.178,-0.375 0.178,-0.341C0.178,-0.306 0.184,-0.276 0.197,-0.25C0.209,-0.225 0.225,-0.204 0.245,-0.187C0.265,-0.17 0.286,-0.158 0.31,-0.15C0.334,-0.141 0.357,-0.137 0.38,-0.137C0.4,-0.137 0.417,-0.139 0.431,-0.143C0.445,-0.147 0.458,-0.151 0.468,-0.157C0.479,-0.163 0.488,-0.168 0.495,-0.173C0.502,-0.177 0.51,-0.182 0.517,-0.186C0.525,-0.19 0.533,-0.192 0.541,-0.192C0.55,-0.192 0.56,-0.188 0.57,-0.181C0.579,-0.173 0.589,-0.162 0.599,-0.146C0.605,-0.137 0.61,-0.128 0.613,-0.12C0.616,-0.112 0.617,-0.104 0.617,-0.096C0.617,-0.082 0.611,-0.07 0.601,-0.061C0.59,-0.052 0.579,-0.044 0.567,-0.037C0.561,-0.034 0.551,-0.028 0.536,-0.019C0.521,-0.01 0.501,-0.002 0.475,0.005C0.45,0.013 0.419,0.017 0.384,0.017Z" style="fill:white;fill-rule:nonzero;"/>
                    </g>
                    <g transform="matrix(72.790661,0,0,72.790661,492.248203,471.159817)">
                        <path d="M0.561,-0.691C0.573,-0.691 0.583,-0.69 0.593,-0.688C0.602,-0.686 0.61,-0.68 0.616,-0.671C0.622,-0.662 0.626,-0.647 0.626,-0.625C0.626,-0.604 0.622,-0.589 0.616,-0.58C0.61,-0.571 0.602,-0.565 0.592,-0.563C0.582,-0.561 0.572,-0.56 0.56,-0.56L0.399,-0.56L0.399,-0.065C0.399,-0.052 0.398,-0.04 0.396,-0.029C0.393,-0.017 0.387,-0.008 0.376,-0.001C0.366,0.006 0.348,0.009 0.324,0.009C0.3,0.009 0.282,0.006 0.272,-0.001C0.261,-0.009 0.255,-0.018 0.253,-0.029C0.251,-0.041 0.249,-0.053 0.249,-0.066L0.249,-0.56L0.087,-0.56C0.076,-0.56 0.066,-0.561 0.056,-0.564C0.046,-0.566 0.038,-0.571 0.032,-0.58C0.026,-0.589 0.023,-0.605 0.022,-0.626C0.023,-0.647 0.026,-0.662 0.032,-0.671C0.038,-0.68 0.046,-0.686 0.056,-0.688C0.066,-0.69 0.077,-0.691 0.087,-0.691L0.561,-0.691Z" style="fill:white;fill-rule:nonzero;"/>
                    </g>
                    <g transform="matrix(72.790661,0,0,72.790661,526.896558,471.159817)">
                        <path d="M0.688,-0.097C0.696,-0.08 0.701,-0.066 0.701,-0.054C0.702,-0.042 0.698,-0.032 0.69,-0.023C0.683,-0.014 0.67,-0.005 0.653,0.004C0.626,0.016 0.606,0.02 0.591,0.015C0.577,0.01 0.563,-0.006 0.55,-0.033L0.354,-0.443L0.159,-0.033C0.146,-0.007 0.132,0.009 0.117,0.014C0.103,0.019 0.082,0.015 0.056,0.003C0.039,-0.006 0.026,-0.014 0.018,-0.023C0.01,-0.032 0.007,-0.043 0.008,-0.055C0.009,-0.067 0.013,-0.082 0.022,-0.099L0.285,-0.646C0.291,-0.659 0.301,-0.67 0.314,-0.678C0.327,-0.686 0.341,-0.69 0.355,-0.69C0.365,-0.69 0.374,-0.688 0.383,-0.685C0.391,-0.681 0.399,-0.676 0.406,-0.669C0.413,-0.663 0.419,-0.654 0.424,-0.645L0.688,-0.097ZM0.186,-0.154L0.248,-0.283L0.461,-0.283L0.523,-0.154L0.186,-0.154Z" style="fill:white;fill-rule:nonzero;"/>
                    </g>
                    <g transform="matrix(102,0,0,102,303.017934,561.583129)">
                        <path d="M0.561,-0.691C0.573,-0.691 0.583,-0.69 0.593,-0.688C0.602,-0.686 0.61,-0.68 0.616,-0.671C0.622,-0.662 0.626,-0.647 0.626,-0.625C0.626,-0.604 0.622,-0.589 0.616,-0.58C0.61,-0.571 0.602,-0.565 0.592,-0.563C0.582,-0.561 0.572,-0.56 0.56,-0.56L0.399,-0.56L0.399,-0.065C0.399,-0.052 0.398,-0.04 0.396,-0.029C0.393,-0.017 0.387,-0.008 0.376,-0.001C0.366,0.006 0.348,0.009 0.324,0.009C0.3,0.009 0.282,0.006 0.272,-0.001C0.261,-0.009 0.255,-0.018 0.253,-0.029C0.251,-0.041 0.249,-0.053 0.249,-0.066L0.249,-0.56L0.087,-0.56C0.076,-0.56 0.066,-0.561 0.056,-0.564C0.046,-0.566 0.038,-0.571 0.032,-0.58C0.026,-0.589 0.023,-0.605 0.022,-0.626C0.023,-0.647 0.026,-0.662 0.032,-0.671C0.038,-0.68 0.046,-0.686 0.056,-0.688C0.066,-0.69 0.077,-0.691 0.087,-0.691L0.561,-0.691Z" style="fill:white;fill-rule:nonzero;"/>
                    </g>
                    <g transform="matrix(72.790661,0,0,72.790661,369.113934,561.583129)">
                        <path d="M0.126,0.009C0.102,0.009 0.084,0.006 0.074,-0.001C0.063,-0.009 0.057,-0.018 0.054,-0.03C0.052,-0.042 0.051,-0.054 0.051,-0.067L0.051,-0.614C0.051,-0.643 0.056,-0.663 0.068,-0.674C0.079,-0.685 0.1,-0.69 0.129,-0.69L0.507,-0.69C0.521,-0.69 0.533,-0.689 0.544,-0.686C0.556,-0.684 0.565,-0.677 0.572,-0.667C0.579,-0.656 0.583,-0.638 0.583,-0.613C0.583,-0.589 0.579,-0.571 0.572,-0.561C0.565,-0.55 0.555,-0.544 0.544,-0.541C0.532,-0.539 0.52,-0.538 0.506,-0.538L0.203,-0.538L0.203,-0.409L0.409,-0.409C0.423,-0.409 0.434,-0.408 0.444,-0.406C0.454,-0.404 0.463,-0.398 0.469,-0.389C0.475,-0.38 0.478,-0.364 0.478,-0.342C0.478,-0.321 0.475,-0.306 0.469,-0.297C0.463,-0.288 0.454,-0.282 0.444,-0.28C0.433,-0.278 0.421,-0.277 0.407,-0.277L0.203,-0.277L0.203,-0.143L0.507,-0.143C0.521,-0.143 0.533,-0.142 0.544,-0.139C0.556,-0.137 0.565,-0.13 0.572,-0.119C0.579,-0.109 0.583,-0.091 0.583,-0.066C0.583,-0.042 0.579,-0.024 0.572,-0.014C0.565,-0.003 0.555,0.003 0.544,0.006C0.532,0.008 0.52,0.009 0.506,0.009L0.126,0.009Z" style="fill:white;fill-rule:nonzero;"/>
                    </g>
                    <g transform="matrix(72.790661,0,0,72.790661,413.49804,561.583129)">
                        <path d="M0.384,0.017C0.354,0.017 0.323,0.012 0.291,0.003C0.258,-0.006 0.226,-0.02 0.195,-0.039C0.163,-0.057 0.135,-0.081 0.109,-0.11C0.084,-0.139 0.064,-0.173 0.049,-0.212C0.034,-0.251 0.026,-0.296 0.026,-0.346C0.026,-0.394 0.034,-0.437 0.049,-0.475C0.064,-0.512 0.084,-0.545 0.109,-0.573C0.134,-0.601 0.162,-0.624 0.194,-0.642C0.225,-0.66 0.258,-0.674 0.291,-0.683C0.324,-0.692 0.356,-0.697 0.386,-0.697C0.42,-0.697 0.449,-0.693 0.475,-0.685C0.5,-0.677 0.521,-0.669 0.537,-0.66C0.553,-0.652 0.563,-0.646 0.567,-0.643C0.579,-0.635 0.591,-0.627 0.601,-0.618C0.612,-0.608 0.617,-0.596 0.618,-0.581C0.618,-0.573 0.617,-0.565 0.614,-0.557C0.61,-0.549 0.606,-0.541 0.6,-0.533C0.589,-0.518 0.579,-0.507 0.569,-0.5C0.559,-0.493 0.55,-0.489 0.54,-0.489C0.532,-0.489 0.524,-0.491 0.517,-0.495C0.51,-0.499 0.501,-0.505 0.491,-0.511C0.486,-0.514 0.48,-0.518 0.471,-0.523C0.462,-0.528 0.45,-0.533 0.436,-0.537C0.421,-0.541 0.402,-0.543 0.38,-0.543C0.357,-0.543 0.333,-0.539 0.309,-0.531C0.286,-0.523 0.264,-0.51 0.244,-0.494C0.224,-0.477 0.208,-0.456 0.196,-0.43C0.184,-0.405 0.178,-0.375 0.178,-0.341C0.178,-0.306 0.184,-0.276 0.197,-0.25C0.209,-0.225 0.225,-0.204 0.245,-0.187C0.265,-0.17 0.286,-0.158 0.31,-0.15C0.334,-0.141 0.357,-0.137 0.38,-0.137C0.4,-0.137 0.417,-0.139 0.431,-0.143C0.445,-0.147 0.458,-0.151 0.468,-0.157C0.479,-0.163 0.488,-0.168 0.495,-0.173C0.502,-0.177 0.51,-0.182 0.517,-0.186C0.525,-0.19 0.533,-0.192 0.541,-0.192C0.55,-0.192 0.56,-0.188 0.57,-0.181C0.579,-0.173 0.589,-0.162 0.599,-0.146C0.605,-0.137 0.61,-0.128 0.613,-0.12C0.616,-0.112 0.617,-0.104 0.617,-0.096C0.617,-0.082 0.611,-0.07 0.601,-0.061C0.59,-0.052 0.579,-0.044 0.567,-0.037C0.561,-0.034 0.551,-0.028 0.536,-0.019C0.521,-0.01 0.501,-0.002 0.475,0.005C0.45,0.013 0.419,0.017 0.384,0.017Z" style="fill:white;fill-rule:nonzero;"/>
                    </g>
                    <g transform="matrix(72.790661,0,0,72.790661,460.302435,561.583129)">
                        <path d="M0.543,0.009C0.518,0.009 0.501,0.005 0.49,-0.002C0.48,-0.009 0.473,-0.019 0.471,-0.031C0.468,-0.043 0.467,-0.055 0.467,-0.068L0.467,-0.614C0.467,-0.627 0.468,-0.639 0.471,-0.651C0.474,-0.662 0.48,-0.672 0.491,-0.679C0.501,-0.686 0.519,-0.69 0.544,-0.69C0.569,-0.69 0.586,-0.686 0.597,-0.679C0.607,-0.672 0.613,-0.662 0.616,-0.651C0.618,-0.639 0.619,-0.627 0.619,-0.613L0.619,-0.067C0.619,-0.054 0.618,-0.042 0.616,-0.03C0.613,-0.019 0.606,-0.009 0.596,-0.002C0.585,0.005 0.568,0.009 0.543,0.009ZM0.119,0.009C0.094,0.009 0.077,0.005 0.066,-0.002C0.056,-0.009 0.049,-0.019 0.047,-0.031C0.044,-0.043 0.043,-0.055 0.043,-0.068L0.043,-0.614C0.043,-0.627 0.044,-0.639 0.047,-0.651C0.049,-0.662 0.056,-0.672 0.066,-0.679C0.077,-0.686 0.095,-0.69 0.12,-0.69C0.144,-0.69 0.162,-0.686 0.172,-0.679C0.183,-0.672 0.189,-0.662 0.191,-0.651C0.194,-0.639 0.195,-0.627 0.195,-0.613L0.195,-0.067C0.195,-0.054 0.194,-0.042 0.191,-0.03C0.189,-0.019 0.182,-0.009 0.172,-0.002C0.161,0.005 0.143,0.009 0.119,0.009ZM0.171,-0.277L0.171,-0.409L0.483,-0.409L0.483,-0.277L0.171,-0.277Z" style="fill:white;fill-rule:nonzero;"/>
                    </g>
                    <g transform="matrix(72.790661,0,0,72.790661,508.50805,561.583129)">
                    </g>
                </g>
            </g>
        </g>
    </g>
</svg>
