<?xml version="1.0" encoding="UTF-8" standalone="no"?>
<!DOCTYPE svg PUBLIC "-//W3C//DTD SVG 1.1//EN" "http://www.w3.org/Graphics/SVG/1.1/DTD/svg11.dtd">
<svg width="100%" height="100%" viewBox="0 0 1024 500" version="1.1" xmlns="http://www.w3.org/2000/svg" xmlns:xlink="http://www.w3.org/1999/xlink" xml:space="preserve" xmlns:serif="http://www.serif.com/" style="fill-rule:evenodd;clip-rule:evenodd;stroke-linejoin:round;stroke-miterlimit:2;">
    <rect id="horizontal" x="0" y="0" width="1024" height="500" style="fill:none;"/>
    <g id="horizontal1" serif:id="horizontal">
        <g id="LogoBlanco">
            <g id="IsotipoBlanco" transform="matrix(0.604653,0,0,0.604653,-55.363831,53.939898)">
                <g id="AzulMedianoche" transform="matrix(1.653842,0,0,1.653842,91.563045,-89.208084)">
                    <path d="M257.041,396.373C251.516,396.376 245.521,396.377 239.012,396.377C230.327,396.377 222.556,396.375 215.596,396.369L214.718,347.413C214.849,305.044 214.054,297.103 219.9,284.387C220.154,283.835 220.422,283.278 220.705,282.707C221.833,280.52 223.212,277.452 224.919,274.973C230.536,266.818 238.618,262.261 251.424,258.397C274.474,251.443 289.854,239.939 300.496,221.181C303.072,217.088 304.786,213.7 305.87,209.629C306.256,208.352 306.528,207.05 306.716,205.516L306.718,205.5C307.191,202.383 307.554,200.1 307.674,199.344L311.518,192.562C316.849,183.155 323.477,179.402 334.564,179.43C347.35,179.463 353.562,183.795 356.506,191.467C358.655,197.068 359.742,198.452 359.339,205.576C358.77,215.653 355.686,220.27 342.818,231.354C323.926,247.626 311.325,259.602 309.062,263.313C307.238,266.304 306.539,269.851 306.535,277.433C306.535,277.433 307.206,282.81 306.532,284.784C305.244,288.556 307.149,287.833 304.526,289.784C297.639,294.907 286.976,304.543 283.056,311.828C277.612,321.947 276.779,328.73 277.209,364.995L277.582,396.477L271.377,396.477L257.048,396.476L257.041,396.373ZM303.219,157.229L290.183,157.229C290.075,155.017 289.866,153.639 289.578,152.753C289.219,151.653 288.71,151.084 288.141,150.705C283.748,147.776 277.003,141.206 275.613,138.437C267.763,122.796 279.517,103.622 296.962,103.622C311.176,103.622 322.988,116.925 320.81,130.543C319.53,138.55 316.249,142.75 306.003,150.119C305.37,150.574 304.872,150.986 304.467,151.541C303.786,152.475 303.337,153.907 303.219,157.229ZM377.102,176.606C365.167,171.392 359.626,160.378 363.117,148.623C367.06,135.344 382.847,128.043 394.643,134.111C403.509,138.671 407.636,145.311 407.636,155.059C407.636,161.965 406.155,166.179 402.112,170.508C395.769,177.3 384.857,179.994 377.102,176.606Z" style="fill:white;"/>
                </g>
                <g id="VerdeCrecimiento" transform="matrix(5.780356,0,0,5.780356,-142.166425,-528.84651)">
                    <path d="M88.715,158.727C88.695,158.727 88.675,158.726 88.655,158.723L88.713,158.72L88.715,158.727ZM88.558,158.727L90.097,159.939C90.119,159.956 90.141,159.971 90.165,159.983C92.171,161.047 94.898,164.047 95.994,166.386L96.902,168.324L96.902,179.071L96.902,189.467L93.512,189.467C85.891,189.467 85.434,189.462 83.991,188.723C82.603,188.011 81.951,187.438 81.657,185.707C81.443,184.446 81.402,182.626 81.402,179.83C81.402,170.767 80.708,168.312 77.413,164.929C74.547,161.987 73.158,161.437 68.403,161.428C64.913,161.422 64.591,161.393 63.279,160.525C57.867,156.948 60.768,148.365 67.366,148.401C68.62,148.407 70.007,149.054 71.133,149.982C72.252,150.905 73.122,152.109 73.31,153.285C73.439,154.092 73.858,155.265 74.239,155.891C75.001,157.145 75.786,157.8 77.73,158.171C78.927,158.4 80.597,158.519 83.049,158.614C85.564,158.712 87.784,158.754 88.558,158.727ZM129.699,158.336L129.733,158.161C129.733,158.218 129.724,158.277 129.699,158.336ZM129.529,158.573L129.567,158.57C131.04,158.461 138.454,158.495 139.359,158.319C141.796,157.846 143.198,156.481 144.185,153.514C145.846,148.525 151.206,146.836 154.974,150.144C156.475,151.462 157.052,152.85 157.045,155.07C157.039,156.908 155.926,158.805 155.402,159.357C155.189,159.581 154.238,160.448 153.415,160.873C152.165,161.519 151.63,161.6 149.964,161.431C148.782,161.311 147.369,161.214 146.824,161.215C145.661,161.217 144.184,161.806 142.722,162.77C140.594,164.174 138.489,166.361 137.431,168.514C136.46,170.491 136.413,170.691 136.237,178.62C136.161,182.037 136.135,184.408 135.79,186.054C135.582,187.049 135.262,187.759 134.704,188.255C134.136,188.76 133.334,189.038 132.213,189.21C130.386,189.49 127.762,189.467 123.982,189.467L120.732,189.467L120.625,180.477C120.506,170.396 120.68,168.504 122.194,165.691C123.255,163.719 126.003,160.9 128.008,159.725C128.7,159.32 129.29,158.817 129.529,158.573ZM129.649,158.422L129.697,158.34C129.685,158.368 129.669,158.395 129.649,158.422ZM64.746,126.535C62.131,125.602 60.538,123.351 60.538,120.585C60.538,116.699 63.462,113.807 67.366,113.828C68.569,113.835 69.908,114.442 71.035,115.341C72.17,116.245 73.096,117.45 73.437,118.681C73.958,120.556 73.865,121.448 72.967,123.236C71.41,126.338 68.015,127.7 64.746,126.535Z" style="fill:white;"/>
                </g>
                <g id="AzulMedianoche1" serif:id="AzulMedianoche" transform="matrix(1.653842,0,0,1.653842,91.563045,-89.208084)">
                    <path d="M200.422,360.044L200.422,322.13C200.422,321.912 200.374,321.697 200.281,321.5L196.957,314.407C192.903,305.756 182.814,294.696 175.366,290.686L170.489,286.846C170.983,285.24 171.727,282.025 171.233,278.361C170.947,274.224 170.657,267.452 168.413,262.695C168.379,262.625 168.341,262.557 168.297,262.493C166.162,259.359 147.338,242.336 136.584,233.593C123.285,222.779 117.248,214.972 117.339,204.307C117.42,194.727 122.66,186.752 130.364,182.913C144.757,175.741 162.543,182.35 167.287,196.723C167.853,198.44 168.358,199.44 168.798,199.979C168.915,200.122 169.032,200.243 169.148,200.345L169.586,200.66L170.118,200.879L170.687,200.953L171.218,200.86L171.729,200.554L172.072,200.141L172.285,199.692C172.954,197.896 173.912,188.343 173.912,176.765L173.912,176.753C173.912,176.753 173.791,160.89 173.912,152.872C173.92,152.339 173.641,151.842 173.182,151.572C165.214,146.879 155.248,141.32 155.212,128.91C155.184,119.209 161.696,103.537 179.827,103.537C200.322,103.537 204.21,121.495 204.203,128.548C204.194,138.039 196.998,147.008 187.828,151.307C187.3,151.554 186.966,152.088 186.975,152.671C187.079,159.765 186.99,175.731 186.99,175.731L186.99,175.741C186.999,191.552 187.587,201.213 188.745,205.561C192.762,220.649 203.444,233.598 217.152,240.023C223.654,243.071 225.886,243.468 238.394,243.468C251.021,243.468 252.335,242.871 259.299,239.901C265.35,237.32 278.252,226.622 280.884,222.638C288.226,211.523 289.546,206.286 289.859,182.821C289.981,173.7 290.137,164.004 290.235,160.485C293.15,160.357 299.783,160.319 303.255,160.268C303.44,166.065 304.099,181.23 304.11,181.492C305.116,206.981 303.849,210.829 295.539,223.272C284.573,239.695 272.416,248.617 251.73,255.477C231.87,262.062 225.082,267.275 218.303,280.775C212.801,291.732 212.259,296.805 212.255,348.945L212.251,396.472L206.336,396.474L200.422,396.475L200.422,360.044ZM272.62,194.503C271.521,224.194 244.184,226.992 238.743,227.171C222.462,227.708 206.17,213.763 205.243,195.073C203.911,168.227 226.163,158.943 240.029,159.513C260.509,160.354 273.236,177.834 272.62,194.503Z" style="fill:white;fill-rule:nonzero;"/>
                </g>
            </g>
            <g id="TextoBlanco" transform="matrix(1.341628,0,0,1.341628,232.555307,-382.121304)">
                <g transform="matrix(102,0,0,102,176.913242,471.159817)">
                    <path d="M0.384,0.017C0.354,0.017 0.323,0.012 0.291,0.003C0.258,-0.006 0.226,-0.02 0.195,-0.039C0.163,-0.057 0.135,-0.081 0.109,-0.11C0.084,-0.139 0.064,-0.173 0.049,-0.212C0.034,-0.251 0.026,-0.296 0.026,-0.346C0.026,-0.394 0.034,-0.437 0.049,-0.475C0.064,-0.512 0.084,-0.545 0.109,-0.573C0.134,-0.601 0.162,-0.624 0.194,-0.642C0.225,-0.66 0.258,-0.674 0.291,-0.683C0.324,-0.692 0.356,-0.697 0.386,-0.697C0.42,-0.697 0.449,-0.693 0.475,-0.685C0.5,-0.677 0.521,-0.669 0.537,-0.66C0.553,-0.652 0.563,-0.646 0.567,-0.643C0.579,-0.635 0.591,-0.627 0.601,-0.618C0.612,-0.608 0.617,-0.596 0.618,-0.581C0.618,-0.573 0.617,-0.565 0.614,-0.557C0.61,-0.549 0.606,-0.541 0.6,-0.533C0.589,-0.518 0.579,-0.507 0.569,-0.5C0.559,-0.493 0.55,-0.489 0.54,-0.489C0.532,-0.489 0.524,-0.491 0.517,-0.495C0.51,-0.499 0.501,-0.505 0.491,-0.511C0.486,-0.514 0.48,-0.518 0.471,-0.523C0.462,-0.528 0.45,-0.533 0.436,-0.537C0.421,-0.541 0.402,-0.543 0.38,-0.543C0.357,-0.543 0.333,-0.539 0.309,-0.531C0.286,-0.523 0.264,-0.51 0.244,-0.494C0.224,-0.477 0.208,-0.456 0.196,-0.43C0.184,-0.405 0.178,-0.375 0.178,-0.341C0.178,-0.306 0.184,-0.276 0.197,-0.25C0.209,-0.225 0.225,-0.204 0.245,-0.187C0.265,-0.17 0.286,-0.158 0.31,-0.15C0.334,-0.141 0.357,-0.137 0.38,-0.137C0.4,-0.137 0.417,-0.139 0.431,-0.143C0.445,-0.147 0.458,-0.151 0.468,-0.157C0.479,-0.163 0.488,-0.168 0.495,-0.173C0.502,-0.177 0.51,-0.182 0.517,-0.186C0.525,-0.19 0.533,-0.192 0.541,-0.192C0.55,-0.192 0.56,-0.188 0.57,-0.181C0.579,-0.173 0.589,-0.162 0.599,-0.146C0.605,-0.137 0.61,-0.128 0.613,-0.12C0.616,-0.112 0.617,-0.104 0.617,-0.096C0.617,-0.082 0.611,-0.07 0.601,-0.061C0.59,-0.052 0.579,-0.044 0.567,-0.037C0.561,-0.034 0.551,-0.028 0.536,-0.019C0.521,-0.01 0.501,-0.002 0.475,0.005C0.45,0.013 0.419,0.017 0.384,0.017Z" style="fill:white;fill-rule:nonzero;"/>
                </g>
                <g transform="matrix(72,0,0,72,242.499242,471.159817)">
                    <path d="M0.367,0.019C0.319,0.019 0.274,0.01 0.231,-0.008C0.189,-0.027 0.152,-0.052 0.12,-0.085C0.088,-0.117 0.063,-0.155 0.045,-0.197C0.027,-0.24 0.018,-0.286 0.018,-0.335C0.018,-0.385 0.027,-0.432 0.044,-0.476C0.062,-0.52 0.086,-0.558 0.118,-0.591C0.149,-0.624 0.185,-0.65 0.226,-0.669C0.267,-0.687 0.312,-0.697 0.359,-0.697C0.407,-0.697 0.452,-0.688 0.494,-0.669C0.537,-0.651 0.573,-0.626 0.605,-0.593C0.637,-0.56 0.661,-0.522 0.679,-0.479C0.697,-0.435 0.707,-0.389 0.707,-0.338C0.707,-0.289 0.698,-0.243 0.68,-0.2C0.663,-0.157 0.638,-0.119 0.607,-0.086C0.575,-0.053 0.539,-0.027 0.499,-0.009C0.458,0.01 0.414,0.019 0.367,0.019ZM0.362,-0.133C0.388,-0.133 0.413,-0.138 0.437,-0.149C0.46,-0.16 0.481,-0.174 0.498,-0.193C0.516,-0.211 0.53,-0.233 0.539,-0.258C0.549,-0.283 0.554,-0.31 0.554,-0.339C0.554,-0.367 0.549,-0.394 0.539,-0.418C0.529,-0.443 0.515,-0.465 0.497,-0.484C0.48,-0.503 0.459,-0.518 0.436,-0.529C0.413,-0.539 0.389,-0.544 0.362,-0.544C0.336,-0.544 0.311,-0.539 0.288,-0.529C0.265,-0.518 0.245,-0.503 0.227,-0.484C0.209,-0.465 0.195,-0.444 0.185,-0.419C0.175,-0.394 0.17,-0.367 0.17,-0.338C0.17,-0.31 0.175,-0.284 0.186,-0.259C0.196,-0.234 0.21,-0.212 0.227,-0.193C0.245,-0.174 0.265,-0.16 0.288,-0.149C0.311,-0.139 0.336,-0.133 0.362,-0.133Z" style="fill:white;fill-rule:nonzero;"/>
                </g>
                <g transform="matrix(72,0,0,72,294.663242,471.159817)">
                    <path d="M0.115,0.009C0.091,0.009 0.074,0.006 0.064,-0.002C0.053,-0.009 0.047,-0.019 0.044,-0.03C0.042,-0.042 0.04,-0.054 0.04,-0.068L0.04,-0.617C0.04,-0.629 0.042,-0.641 0.044,-0.652C0.047,-0.663 0.054,-0.672 0.065,-0.679C0.076,-0.686 0.093,-0.689 0.118,-0.689C0.142,-0.689 0.159,-0.686 0.168,-0.681C0.177,-0.675 0.186,-0.667 0.193,-0.657L0.485,-0.256L0.485,-0.617C0.485,-0.629 0.487,-0.641 0.489,-0.652C0.492,-0.663 0.499,-0.672 0.51,-0.679C0.52,-0.686 0.538,-0.689 0.562,-0.689C0.587,-0.689 0.604,-0.686 0.614,-0.678C0.625,-0.671 0.631,-0.661 0.634,-0.65C0.636,-0.638 0.637,-0.626 0.637,-0.613L0.637,-0.067C0.637,-0.054 0.636,-0.042 0.633,-0.03C0.63,-0.019 0.624,-0.009 0.613,-0.002C0.602,0.006 0.584,0.009 0.559,0.009C0.541,0.009 0.526,0.008 0.516,0.004C0.506,0.001 0.498,-0.005 0.49,-0.015L0.192,-0.419L0.192,-0.067C0.192,-0.054 0.19,-0.042 0.188,-0.03C0.185,-0.019 0.178,-0.009 0.168,-0.002C0.157,0.006 0.139,0.009 0.115,0.009Z" style="fill:white;fill-rule:nonzero;"/>
                </g>
                <g transform="matrix(72,0,0,72,343.803242,471.159817)">
                    <path d="M0.126,0.009C0.102,0.009 0.084,0.006 0.074,-0.001C0.063,-0.009 0.057,-0.018 0.054,-0.03C0.052,-0.042 0.051,-0.054 0.051,-0.067L0.051,-0.614C0.051,-0.643 0.056,-0.663 0.068,-0.674C0.079,-0.685 0.1,-0.69 0.129,-0.69L0.507,-0.69C0.521,-0.69 0.533,-0.689 0.544,-0.686C0.556,-0.684 0.565,-0.677 0.572,-0.667C0.579,-0.656 0.583,-0.638 0.583,-0.613C0.583,-0.589 0.579,-0.571 0.572,-0.561C0.565,-0.55 0.555,-0.544 0.544,-0.541C0.532,-0.539 0.52,-0.538 0.506,-0.538L0.203,-0.538L0.203,-0.409L0.409,-0.409C0.423,-0.409 0.434,-0.408 0.444,-0.406C0.454,-0.404 0.463,-0.398 0.469,-0.389C0.475,-0.38 0.478,-0.364 0.478,-0.342C0.478,-0.321 0.475,-0.306 0.469,-0.297C0.463,-0.288 0.454,-0.282 0.444,-0.28C0.433,-0.278 0.421,-0.277 0.407,-0.277L0.203,-0.277L0.203,-0.143L0.507,-0.143C0.521,-0.143 0.533,-0.142 0.544,-0.139C0.556,-0.137 0.565,-0.13 0.572,-0.119C0.579,-0.109 0.583,-0.091 0.583,-0.066C0.583,-0.042 0.579,-0.024 0.572,-0.014C0.565,-0.003 0.555,0.003 0.544,0.006C0.532,0.008 0.52,0.009 0.506,0.009L0.126,0.009Z" style="fill:white;fill-rule:nonzero;"/>
                </g>
                <g transform="matrix(72,0,0,72,387.705242,471.159817)">
                    <path d="M0.384,0.017C0.354,0.017 0.323,0.012 0.291,0.003C0.258,-0.006 0.226,-0.02 0.195,-0.039C0.163,-0.057 0.135,-0.081 0.109,-0.11C0.084,-0.139 0.064,-0.173 0.049,-0.212C0.034,-0.251 0.026,-0.296 0.026,-0.346C0.026,-0.394 0.034,-0.437 0.049,-0.475C0.064,-0.512 0.084,-0.545 0.109,-0.573C0.134,-0.601 0.162,-0.624 0.194,-0.642C0.225,-0.66 0.258,-0.674 0.291,-0.683C0.324,-0.692 0.356,-0.697 0.386,-0.697C0.42,-0.697 0.449,-0.693 0.475,-0.685C0.5,-0.677 0.521,-0.669 0.537,-0.66C0.553,-0.652 0.563,-0.646 0.567,-0.643C0.579,-0.635 0.591,-0.627 0.601,-0.618C0.612,-0.608 0.617,-0.596 0.618,-0.581C0.618,-0.573 0.617,-0.565 0.614,-0.557C0.61,-0.549 0.606,-0.541 0.6,-0.533C0.589,-0.518 0.579,-0.507 0.569,-0.5C0.559,-0.493 0.55,-0.489 0.54,-0.489C0.532,-0.489 0.524,-0.491 0.517,-0.495C0.51,-0.499 0.501,-0.505 0.491,-0.511C0.486,-0.514 0.48,-0.518 0.471,-0.523C0.462,-0.528 0.45,-0.533 0.436,-0.537C0.421,-0.541 0.402,-0.543 0.38,-0.543C0.357,-0.543 0.333,-0.539 0.309,-0.531C0.286,-0.523 0.264,-0.51 0.244,-0.494C0.224,-0.477 0.208,-0.456 0.196,-0.43C0.184,-0.405 0.178,-0.375 0.178,-0.341C0.178,-0.306 0.184,-0.276 0.197,-0.25C0.209,-0.225 0.225,-0.204 0.245,-0.187C0.265,-0.17 0.286,-0.158 0.31,-0.15C0.334,-0.141 0.357,-0.137 0.38,-0.137C0.4,-0.137 0.417,-0.139 0.431,-0.143C0.445,-0.147 0.458,-0.151 0.468,-0.157C0.479,-0.163 0.488,-0.168 0.495,-0.173C0.502,-0.177 0.51,-0.182 0.517,-0.186C0.525,-0.19 0.533,-0.192 0.541,-0.192C0.55,-0.192 0.56,-0.188 0.57,-0.181C0.579,-0.173 0.589,-0.162 0.599,-0.146C0.605,-0.137 0.61,-0.128 0.613,-0.12C0.616,-0.112 0.617,-0.104 0.617,-0.096C0.617,-0.082 0.611,-0.07 0.601,-0.061C0.59,-0.052 0.579,-0.044 0.567,-0.037C0.561,-0.034 0.551,-0.028 0.536,-0.019C0.521,-0.01 0.501,-0.002 0.475,0.005C0.45,0.013 0.419,0.017 0.384,0.017Z" style="fill:white;fill-rule:nonzero;"/>
                </g>
                <g transform="matrix(72,0,0,72,434.001242,471.159817)">
                    <path d="M0.561,-0.691C0.573,-0.691 0.583,-0.69 0.593,-0.688C0.602,-0.686 0.61,-0.68 0.616,-0.671C0.622,-0.662 0.626,-0.647 0.626,-0.625C0.626,-0.604 0.622,-0.589 0.616,-0.58C0.61,-0.571 0.602,-0.565 0.592,-0.563C0.582,-0.561 0.572,-0.56 0.56,-0.56L0.399,-0.56L0.399,-0.065C0.399,-0.052 0.398,-0.04 0.396,-0.029C0.393,-0.017 0.387,-0.008 0.376,-0.001C0.366,0.006 0.348,0.009 0.324,0.009C0.3,0.009 0.282,0.006 0.272,-0.001C0.261,-0.009 0.255,-0.018 0.253,-0.029C0.251,-0.041 0.249,-0.053 0.249,-0.066L0.249,-0.56L0.087,-0.56C0.076,-0.56 0.066,-0.561 0.056,-0.564C0.046,-0.566 0.038,-0.571 0.032,-0.58C0.026,-0.589 0.023,-0.605 0.022,-0.626C0.023,-0.647 0.026,-0.662 0.032,-0.671C0.038,-0.68 0.046,-0.686 0.056,-0.688C0.066,-0.69 0.077,-0.691 0.087,-0.691L0.561,-0.691Z" style="fill:white;fill-rule:nonzero;"/>
                </g>
                <g transform="matrix(72,0,0,72,468.273242,471.159817)">
                    <path d="M0.688,-0.097C0.696,-0.08 0.701,-0.066 0.701,-0.054C0.702,-0.042 0.698,-0.032 0.69,-0.023C0.683,-0.014 0.67,-0.005 0.653,0.004C0.626,0.016 0.606,0.02 0.591,0.015C0.577,0.01 0.563,-0.006 0.55,-0.033L0.354,-0.443L0.159,-0.033C0.146,-0.007 0.132,0.009 0.117,0.014C0.103,0.019 0.082,0.015 0.056,0.003C0.039,-0.006 0.026,-0.014 0.018,-0.023C0.01,-0.032 0.007,-0.043 0.008,-0.055C0.009,-0.067 0.013,-0.082 0.022,-0.099L0.285,-0.646C0.291,-0.659 0.301,-0.67 0.314,-0.678C0.327,-0.686 0.341,-0.69 0.355,-0.69C0.365,-0.69 0.374,-0.688 0.383,-0.685C0.391,-0.681 0.399,-0.676 0.406,-0.669C0.413,-0.663 0.419,-0.654 0.424,-0.645L0.688,-0.097ZM0.186,-0.154L0.248,-0.283L0.461,-0.283L0.523,-0.154L0.186,-0.154Z" style="fill:white;fill-rule:nonzero;"/>
                </g>
                <g transform="matrix(102,0,0,102,176.913242,560.603375)">
                    <path d="M0.561,-0.691C0.573,-0.691 0.583,-0.69 0.593,-0.688C0.602,-0.686 0.61,-0.68 0.616,-0.671C0.622,-0.662 0.626,-0.647 0.626,-0.625C0.626,-0.604 0.622,-0.589 0.616,-0.58C0.61,-0.571 0.602,-0.565 0.592,-0.563C0.582,-0.561 0.572,-0.56 0.56,-0.56L0.399,-0.56L0.399,-0.065C0.399,-0.052 0.398,-0.04 0.396,-0.029C0.393,-0.017 0.387,-0.008 0.376,-0.001C0.366,0.006 0.348,0.009 0.324,0.009C0.3,0.009 0.282,0.006 0.272,-0.001C0.261,-0.009 0.255,-0.018 0.253,-0.029C0.251,-0.041 0.249,-0.053 0.249,-0.066L0.249,-0.56L0.087,-0.56C0.076,-0.56 0.066,-0.561 0.056,-0.564C0.046,-0.566 0.038,-0.571 0.032,-0.58C0.026,-0.589 0.023,-0.605 0.022,-0.626C0.023,-0.647 0.026,-0.662 0.032,-0.671C0.038,-0.68 0.046,-0.686 0.056,-0.688C0.066,-0.69 0.077,-0.691 0.087,-0.691L0.561,-0.691Z" style="fill:white;fill-rule:nonzero;"/>
                </g>
                <g transform="matrix(72,0,0,72,243.009242,560.603375)">
                    <path d="M0.126,0.009C0.102,0.009 0.084,0.006 0.074,-0.001C0.063,-0.009 0.057,-0.018 0.054,-0.03C0.052,-0.042 0.051,-0.054 0.051,-0.067L0.051,-0.614C0.051,-0.643 0.056,-0.663 0.068,-0.674C0.079,-0.685 0.1,-0.69 0.129,-0.69L0.507,-0.69C0.521,-0.69 0.533,-0.689 0.544,-0.686C0.556,-0.684 0.565,-0.677 0.572,-0.667C0.579,-0.656 0.583,-0.638 0.583,-0.613C0.583,-0.589 0.579,-0.571 0.572,-0.561C0.565,-0.55 0.555,-0.544 0.544,-0.541C0.532,-0.539 0.52,-0.538 0.506,-0.538L0.203,-0.538L0.203,-0.409L0.409,-0.409C0.423,-0.409 0.434,-0.408 0.444,-0.406C0.454,-0.404 0.463,-0.398 0.469,-0.389C0.475,-0.38 0.478,-0.364 0.478,-0.342C0.478,-0.321 0.475,-0.306 0.469,-0.297C0.463,-0.288 0.454,-0.282 0.444,-0.28C0.433,-0.278 0.421,-0.277 0.407,-0.277L0.203,-0.277L0.203,-0.143L0.507,-0.143C0.521,-0.143 0.533,-0.142 0.544,-0.139C0.556,-0.137 0.565,-0.13 0.572,-0.119C0.579,-0.109 0.583,-0.091 0.583,-0.066C0.583,-0.042 0.579,-0.024 0.572,-0.014C0.565,-0.003 0.555,0.003 0.544,0.006C0.532,0.008 0.52,0.009 0.506,0.009L0.126,0.009Z" style="fill:white;fill-rule:nonzero;"/>
                </g>
                <g transform="matrix(72,0,0,72,286.911242,560.603375)">
                    <path d="M0.384,0.017C0.354,0.017 0.323,0.012 0.291,0.003C0.258,-0.006 0.226,-0.02 0.195,-0.039C0.163,-0.057 0.135,-0.081 0.109,-0.11C0.084,-0.139 0.064,-0.173 0.049,-0.212C0.034,-0.251 0.026,-0.296 0.026,-0.346C0.026,-0.394 0.034,-0.437 0.049,-0.475C0.064,-0.512 0.084,-0.545 0.109,-0.573C0.134,-0.601 0.162,-0.624 0.194,-0.642C0.225,-0.66 0.258,-0.674 0.291,-0.683C0.324,-0.692 0.356,-0.697 0.386,-0.697C0.42,-0.697 0.449,-0.693 0.475,-0.685C0.5,-0.677 0.521,-0.669 0.537,-0.66C0.553,-0.652 0.563,-0.646 0.567,-0.643C0.579,-0.635 0.591,-0.627 0.601,-0.618C0.612,-0.608 0.617,-0.596 0.618,-0.581C0.618,-0.573 0.617,-0.565 0.614,-0.557C0.61,-0.549 0.606,-0.541 0.6,-0.533C0.589,-0.518 0.579,-0.507 0.569,-0.5C0.559,-0.493 0.55,-0.489 0.54,-0.489C0.532,-0.489 0.524,-0.491 0.517,-0.495C0.51,-0.499 0.501,-0.505 0.491,-0.511C0.486,-0.514 0.48,-0.518 0.471,-0.523C0.462,-0.528 0.45,-0.533 0.436,-0.537C0.421,-0.541 0.402,-0.543 0.38,-0.543C0.357,-0.543 0.333,-0.539 0.309,-0.531C0.286,-0.523 0.264,-0.51 0.244,-0.494C0.224,-0.477 0.208,-0.456 0.196,-0.43C0.184,-0.405 0.178,-0.375 0.178,-0.341C0.178,-0.306 0.184,-0.276 0.197,-0.25C0.209,-0.225 0.225,-0.204 0.245,-0.187C0.265,-0.17 0.286,-0.158 0.31,-0.15C0.334,-0.141 0.357,-0.137 0.38,-0.137C0.4,-0.137 0.417,-0.139 0.431,-0.143C0.445,-0.147 0.458,-0.151 0.468,-0.157C0.479,-0.163 0.488,-0.168 0.495,-0.173C0.502,-0.177 0.51,-0.182 0.517,-0.186C0.525,-0.19 0.533,-0.192 0.541,-0.192C0.55,-0.192 0.56,-0.188 0.57,-0.181C0.579,-0.173 0.589,-0.162 0.599,-0.146C0.605,-0.137 0.61,-0.128 0.613,-0.12C0.616,-0.112 0.617,-0.104 0.617,-0.096C0.617,-0.082 0.611,-0.07 0.601,-0.061C0.59,-0.052 0.579,-0.044 0.567,-0.037C0.561,-0.034 0.551,-0.028 0.536,-0.019C0.521,-0.01 0.501,-0.002 0.475,0.005C0.45,0.013 0.419,0.017 0.384,0.017Z" style="fill:white;fill-rule:nonzero;"/>
                </g>
                <g transform="matrix(72,0,0,72,333.207242,560.603375)">
                    <path d="M0.543,0.009C0.518,0.009 0.501,0.005 0.49,-0.002C0.48,-0.009 0.473,-0.019 0.471,-0.031C0.468,-0.043 0.467,-0.055 0.467,-0.068L0.467,-0.614C0.467,-0.627 0.468,-0.639 0.471,-0.651C0.474,-0.662 0.48,-0.672 0.491,-0.679C0.501,-0.686 0.519,-0.69 0.544,-0.69C0.569,-0.69 0.586,-0.686 0.597,-0.679C0.607,-0.672 0.613,-0.662 0.616,-0.651C0.618,-0.639 0.619,-0.627 0.619,-0.613L0.619,-0.067C0.619,-0.054 0.618,-0.042 0.616,-0.03C0.613,-0.019 0.606,-0.009 0.596,-0.002C0.585,0.005 0.568,0.009 0.543,0.009ZM0.119,0.009C0.094,0.009 0.077,0.005 0.066,-0.002C0.056,-0.009 0.049,-0.019 0.047,-0.031C0.044,-0.043 0.043,-0.055 0.043,-0.068L0.043,-0.614C0.043,-0.627 0.044,-0.639 0.047,-0.651C0.049,-0.662 0.056,-0.672 0.066,-0.679C0.077,-0.686 0.095,-0.69 0.12,-0.69C0.144,-0.69 0.162,-0.686 0.172,-0.679C0.183,-0.672 0.189,-0.662 0.191,-0.651C0.194,-0.639 0.195,-0.627 0.195,-0.613L0.195,-0.067C0.195,-0.054 0.194,-0.042 0.191,-0.03C0.189,-0.019 0.182,-0.009 0.172,-0.002C0.161,0.005 0.143,0.009 0.119,0.009ZM0.171,-0.277L0.171,-0.409L0.483,-0.409L0.483,-0.277L0.171,-0.277Z" style="fill:white;fill-rule:nonzero;"/>
                </g>
                <g transform="matrix(72,0,0,72,380.889242,560.603375)">
                </g>
            </g>
        </g>
    </g>
</svg>
